<?xml version="1.0" encoding="iso-8859-1"?>
<!-- Generator: Adobe Illustrator 19.0.0, SVG Export Plug-In . SVG Version: 6.00 Build 0)  -->
<svg xmlns="http://www.w3.org/2000/svg" xmlns:xlink="http://www.w3.org/1999/xlink" version="1.1" id="Layer_1" x="0px" y="0px" viewBox="0 0 512 512" style="enable-background:new 0 0 512 512;" xml:space="preserve">
<g>
	<g>
		<path d="M386.732,0H125.268C85.029,0,52.293,32.737,52.293,72.975v418.342c0,7.747,4.33,14.845,11.219,18.39    c6.889,3.546,15.182,2.944,21.485-1.56L256,386.001l171.004,122.145c3.576,2.554,7.788,3.852,12.023,3.852    c3.233,0,6.479-0.757,9.462-2.293c6.889-3.545,11.218-10.643,11.218-18.39V72.975C459.707,32.737,426.97,0,386.732,0z     M418.342,451.127L268.021,343.755c-3.596-2.568-7.809-3.852-12.021-3.852c-4.213,0-8.425,1.285-12.021,3.853L93.657,451.128    V72.975c0-17.43,14.181-31.611,31.611-31.611h261.463c17.43,0,31.611,14.181,31.611,31.611V451.127z"/>
	</g>
</g>
<g>
</g>
<g>
</g>
<g>
</g>
<g>
</g>
<g>
</g>
<g>
</g>
<g>
</g>
<g>
</g>
<g>
</g>
<g>
</g>
<g>
</g>
<g>
</g>
<g>
</g>
<g>
</g>
<g>
</g>
</svg>
